<svg xmlns="http://www.w3.org/2000/svg" width="160" height="46" viewBox="0 0 160 46">
  <path
    d="M126.072 44.676c-10.29 0-12.45-5.838-12.45-10.735 0-5.285 2.259-8.542 4.926-9.902 1.21-2.78 2.073-6.337 2.71-9.255.341-1.56 1.541-2.773 3.068-3.097l7.193-1.527c.266-.057.535-.084.804-.084.905 0 .939 3.27 1.654 3.867.924.773 2.314-1.02 2.314.204v.712c0 3.848.81 6.158 1.669 8.603.227.652.458 1.307.674 1.987.078-.004.156-.007.237-.007h.109a3.94 3.94 0 0 1 3.042 1.599l1.29 1.729c1.318 1.768 1.007 4.295-.7 5.672-.943.761-2.24 1.9-3.613 3.107l-1.043.913c-2.223 3.963-6.498 6.214-11.884 6.214zM32.523 44.676a3.923 3.923 0 0 1-3.083-1.507 4.15 4.15 0 0 1-.8-3.407l5.258-25.442c.39-1.882 2.007-3.227 3.882-3.227h7.143a3.89 3.89 0 0 1 1.998.553c1.11-.37 2.211-.553 3.31-.553 4.369 0 7.54 3.081 7.54 7.327 0 3.866-2.94 8.039-7.688 8.039-.898 0-2.13-.17-3.254-.904l-3.28 15.893c-.389 1.88-2.008 3.226-3.883 3.226h-7.143z"
    fill="#b2b2b2"/>
  <path
    d="M59.705 44.676c-6.241 0-10.12-3.685-10.12-9.617 0-2.183.961-6.782 2.425-13.551l.35-1.62-.09-.107a4.15 4.15 0 0 1-.821-3.38l.397-2.035a4.052 4.052 0 0 1 2.252-2.909l.886-4.179c.354-1.674 1.692-2.94 3.346-3.169l7.394-.036c.178-.025-.178 0 0 0 1.1 0 .782.732 1.538 1.576.88.98 3.095 1.053 2.817 2.353-.001.005-.298 1.386-.753 3.553.469.25.89.598 1.235 1.03a4.145 4.145 0 0 1 .822 3.377l-.395 2.036c-.356 1.827-1.874 3.165-3.668 3.266-.83 3.923-1.398 6.674-1.788 8.6l.187-.166c.548-.495 1.08-.97 1.576-1.378a3.902 3.902 0 0 1 2.48-.893h1.686c1.604 0 3.051.993 3.665 2.513a4.147 4.147 0 0 1-.86 4.436c-.313.323-.695.736-1.128 1.203-4.44 4.793-8.81 9.097-13.433 9.097z"
    fill="#b2b2b2"/>
  <path
    d="M88.622 44.676c-4.372 0-7.649-1.87-9.191-5.013l-.37 1.787c-.388 1.882-2.006 3.226-3.881 3.226h-7.143a3.93 3.93 0 0 1-3.084-1.51 4.152 4.152 0 0 1-.797-3.41l1.923-14.62 4.526-20.15c.35-1.68 2.433-2.785 4.093-3.016l7.34-1.017a3.923 3.923 0 0 1 3.443 1.268 4.143 4.143 0 0 1 .97 3.618l-1.418 6.791c2.057-1.538 2.468-1.538 3.39-1.538.015 0 4.989.43 5.227 1.018.657 1.629 3.416.151 3.926 1.863.511 1.711-.129 3.564-1.574 4.564l-4.007 2.773c1.667 1.89 2.73 4.38 2.73 6.981 0 .202-.008.405-.02.61.214-.198.436-.395.665-.582a3.902 3.902 0 0 1 2.48-.893h1.685c1.605 0 3.051.993 3.665 2.513a4.149 4.149 0 0 1-.859 4.436c-.392.402-.964 1.07-1.57 1.777-3.08 3.597-7.3 8.524-12.149 8.524z"
    fill="#b2b2b2"/>
  <path
    d="M103.554 44.982c-7.669 0-11.558-6.941-11.558-15.18 0-3.76-.725-6.085 0-8.492 1.944-6.448 8.688-10.217 14.717-10.217 4.6 0 7.182 2.775 8.564 7.107.536-.365 4.138-1.561 4.891-1.874a3.879 3.879 0 0 1 3.391.198 4.067 4.067 0 0 1 2 2.816l.198 1.07a4.151 4.151 0 0 1-.794 3.29c-1.588 2.05-3.875 3.777-6.49 4.941-1.906 11.205-8.864 16.341-14.92 16.341zM144.277 44.676c-6.24 0-10.119-3.685-10.119-9.617 0-2.183.96-6.782 2.425-13.551l.35-1.62-.09-.107a4.15 4.15 0 0 1-.822-3.38l.397-2.035a4.052 4.052 0 0 1 2.252-2.909l.886-4.179c.354-1.674 1.693-2.94 3.346-3.169l7.342-1.017a3.917 3.917 0 0 1 3.45 1.277 4.143 4.143 0 0 1 .956 3.633c0 .005-.297 1.386-.753 3.553.47.25.891.598 1.235 1.03a4.145 4.145 0 0 1 .823 3.377l-.395 2.036c-.356 1.827-1.874 3.165-3.669 3.266-.829 3.923-1.397 6.674-1.787 8.6l.186-.166c.549-.495 1.08-.97 1.577-1.378a3.902 3.902 0 0 1 2.479-.893h1.686c1.604 0 3.052.993 3.666 2.513a4.147 4.147 0 0 1-.86 4.436c-.314.323-.696.736-1.128 1.203-4.44 4.793-8.81 9.097-13.433 9.097zM13.425 46C7.373 46 3.308 41.766 3.308 35.467c0-14.158 6.658-23.305 16.964-23.305.696 0 1.4.09 2.088.265a3.878 3.878 0 0 1 1.532-.316l6.316 1.12c1.196 0 3.156-.566 3.909.388a4.152 4.152 0 0 1 .8 3.407l-2.86 13.848c.063-.057.122-.11.18-.16.548-.494 1.08-.97 1.576-1.377a3.902 3.902 0 0 1 2.48-.893h1.686c1.604 0 3.051.992 3.665 2.513a4.147 4.147 0 0 1-.86 4.436c-.313.322-.695.736-1.128 1.203-4.441 4.794-8.81 9.098-13.433 9.098-2.922 0-4.999-.755-6.476-1.8C17.422 45.562 15.159 46 13.425 46z"
    fill="#b2b2b2"/>
  <path
    d="M123.758 43.761c-10.29 0-12.45-5.84-12.45-10.737 0-5.284 2.258-8.542 4.926-9.902 1.21-2.779 2.073-6.335 2.71-9.255.34-1.56 1.54-2.773 3.068-3.097l7.192-1.526a3.904 3.904 0 0 1 3.31.83 4.107 4.107 0 0 1 1.463 3.157v.711c0 3.848.81 6.158 1.669 8.604.228.65.458 1.306.672 1.987a3.72 3.72 0 0 1 .348-.006 3.936 3.936 0 0 1 3.042 1.597l1.29 1.73c1.318 1.768 1.007 4.295-.7 5.671-.943.762-2.24 1.9-3.613 3.107l-1.042.914c-2.224 3.963-6.5 6.215-11.885 6.215zM30.208 43.761a3.93 3.93 0 0 1-3.083-1.51 4.154 4.154 0 0 1-.799-3.406l5.258-25.442c.389-1.88 2.007-3.226 3.882-3.226h7.143c.71 0 1.399.194 1.999.552 1.11-.37 2.21-.552 3.31-.552 4.367 0 7.539 3.08 7.539 7.326 0 3.866-2.94 8.04-7.689 8.04-.897 0-2.129-.171-3.253-.905L41.234 40.53c-.39 1.882-2.007 3.228-3.882 3.228h-7.144z"
    fill="#fff"/>
  <path
    d="M57.39 43.761c-6.242 0-14.229-4.704-14.229-10.637 0-1.205-1.632-5.272 0-7.632 1.323-1.913 5.88-1.87 6.534-4.901l.351-1.62a4.152 4.152 0 0 1-.913-3.487l.397-2.034a4.052 4.052 0 0 1 2.253-2.909l.886-4.178c.354-1.675 1.692-2.942 3.346-3.17l7.342-1.018a3.923 3.923 0 0 1 3.45 1.278 4.144 4.144 0 0 1 .955 3.633 754.57 754.57 0 0 0-.754 3.552c.472.251.892.6 1.236 1.03a4.151 4.151 0 0 1 .824 3.378l-.397 2.036c-.354 1.827-1.872 3.164-3.668 3.266-.829 3.923-1.396 6.674-1.786 8.6l.186-.167c.549-.494 1.08-.97 1.576-1.378a3.914 3.914 0 0 1 2.48-.893h1.686c1.605 0 3.052.993 3.666 2.514a4.149 4.149 0 0 1-.86 4.436c-.314.323-.695.735-1.13 1.203-4.439 4.793-8.809 9.098-13.43 9.098z"
    fill="#fff"/>
  <path
    d="M86.308 43.761c-4.372 0-7.65-1.871-9.192-5.014l-.369 1.786c-.389 1.883-2.007 3.228-3.882 3.228h-7.142a3.93 3.93 0 0 1-3.085-1.511 4.15 4.15 0 0 1-.796-3.41l1.922-14.62 4.527-20.15c.35-1.68 2.433-2.786 4.093-3.017L79.725.036a3.932 3.932 0 0 1 3.443 1.268 4.149 4.149 0 0 1 .97 3.62l-1.42 6.79c2.057-1.538 2.469-1.538 3.392-1.538h5.356c1.745 0 3.285 1.17 3.795 2.88.51 1.713-.129 3.565-1.575 4.564l-4.005 2.774c1.666 1.889 2.728 4.38 2.728 6.981 0 .202-.006.406-.02.61.215-.2.435-.395.665-.583a3.914 3.914 0 0 1 2.48-.893h1.685c1.604 0 3.052.993 3.666 2.514a4.147 4.147 0 0 1-.86 4.436c-.392.401-.963 1.069-1.57 1.776-3.079 3.599-7.3 8.526-12.147 8.526z"
    fill="#fff"/>
  <path
    d="M101.24 44.065c-7.67 0-11.558-6.941-11.558-15.18 0-3.76-.726-6.085 0-8.49 1.943-6.45 8.686-10.218 14.716-10.218 4.6 0 10.153 1.962 11.535 6.295a10.67 10.67 0 0 1 1.922-1.061 3.87 3.87 0 0 1 3.39.198 4.061 4.061 0 0 1 1.999 2.815l.197 1.07a4.142 4.142 0 0 1-.792 3.29c-1.589 2.05-3.875 3.777-6.49 4.943-1.907 11.204-8.864 16.338-14.92 16.338zM141.963 43.761c-6.242 0-10.119-3.686-10.119-9.619 0-2.182.96-6.782 2.424-13.551l.35-1.62a4.152 4.152 0 0 1-.913-3.487l.398-2.034a4.052 4.052 0 0 1 2.253-2.909l.886-4.178c.354-1.675 1.691-2.942 3.346-3.17l7.341-1.018a3.923 3.923 0 0 1 3.45 1.278 4.144 4.144 0 0 1 .956 3.633 754.57 754.57 0 0 0-.754 3.552c.471.251.892.6 1.236 1.03a4.151 4.151 0 0 1 .823 3.378l-.396 2.036c-.355 1.827-1.872 3.164-3.668 3.266-.83 3.923-1.397 6.674-1.787 8.6l.187-.167c.548-.494 1.08-.97 1.575-1.378a3.914 3.914 0 0 1 2.48-.893h1.687c1.605 0 3.051.993 3.665 2.514a4.149 4.149 0 0 1-.859 4.436c-.314.323-.695.735-1.13 1.203-4.44 4.793-8.81 9.098-13.431 9.098zM10.119 44.065C4.066 44.065 0 39.833 0 33.532c0-14.156 6.66-23.304 16.965-23.304.697 0 1.4.091 2.09.264a3.89 3.89 0 0 1 1.53-.314h7.143a3.93 3.93 0 0 1 3.082 1.506 4.15 4.15 0 0 1 .8 3.407l-2.858 13.85.178-.161c.549-.494 1.08-.97 1.576-1.378a3.914 3.914 0 0 1 2.48-.893h1.686c1.605 0 3.052.993 3.666 2.514a4.149 4.149 0 0 1-.86 4.436c-.314.323-.695.735-1.13 1.203-4.44 4.794-8.81 9.1-13.432 9.1-2.92 0-5-.76-6.476-1.802-2.325 1.669-4.588 2.105-6.321 2.105z"
    fill="#fff"/>
  <path
    d="M20.584 14.248l-.297 1.322c-.892-.763-2.132-1.272-3.324-1.272-9.92 0-12.997 10.483-12.997 19.234 0 3.004 1.39 6.463 6.151 6.463 3.026 0 5.258-2.086 6.746-4.173.645 2.646 2.828 3.868 6.052 3.868 3.868 0 9.475-6.767 11.756-9.109h-1.686C31 32.211 28.42 35.06 26.437 35.06s-2.48-.813-2.48-1.934c0-.457.1-1.017.199-1.576l3.57-17.3h-7.142zm-3.224 2.9c.694 0 1.637.203 2.43.917l-2.777 13.484c-.15.61-.248 1.17-.298 1.68-.942 1.422-2.034 2.543-3.174 2.543-1.24 0-2.877-.56-2.877-3.613 0-6.92 2.976-15.01 6.696-15.01z"
    fill="#d7380f"/>
  <path
    d="M35.465 14.248L30.207 39.69h7.143l4.117-19.946c1.14-1.07 1.933-1.63 3.421-1.63 1.489 0 .1 3.359 2.877 3.359 2.43 0 3.72-2.188 3.72-3.969 0-1.934-1.339-3.256-3.57-3.256-2.085 0-4.07 1.12-5.854 2.545l.546-2.545h-7.142zM56.546 7.227l-1.488 7.021h-1.636l-.397 2.036h1.637c-.844 4.375-3.422 15.163-3.422 17.859 0 3.816 2.33 5.547 6.15 5.547 3.868 0 9.474-6.767 11.756-9.109H67.46c-1.984 1.63-4.564 4.478-6.548 4.478s-2.48-.763-2.48-1.934c0-.254-.05-.763 3.373-16.841h2.976l.396-2.036H62.2c.942-4.58 1.686-8.04 1.686-8.04l-7.34 1.019z"
    fill="#d7380f"/>
  <path
    d="M86.11 14.248c0-.051-5.853 4.58-9.573 7.633l3.72-17.81-7.341 1.018-7.192 34.601h7.142l2.829-13.688c1.041-.712 1.933-1.12 3.173-1.12 1.34 0 2.283 1.17 2.283 3.003 0 .405-.05.865-.149 1.322l-.545 2.342a10.894 10.894 0 0 0-.349 2.697c0 3.712 2.381 5.444 6.2 5.444 3.87 0 8.632-6.767 10.913-9.109h-1.685c-1.984 1.63-3.72 4.478-5.705 4.478-1.934 0-2.48-.763-2.48-1.883 0-.509.1-1.07.248-1.628l.694-2.9c.1-.407.149-.867.149-1.273 0-3.359-3.076-6.31-5.754-6.31-.447 0-.845.052-1.29.153l10.068-6.972-5.356.002z"
    fill="#723014"/>
  <path
    d="M106.695 13.74c-6.845 0-13.045 5.392-13.045 17.91 0 6.055 2.282 8.345 7.59 8.345 4.96 0 10.365-5.037 11.308-15.265 2.876-.814 5.456-2.493 6.993-4.476l-.197-1.07c-1.836.763-2.877 2.493-5.208 2.493-.695 0-1.141-.151-1.439-.457-.1-3.716-1.29-7.48-6.002-7.48zm-3.125 21.319c-1.934 0-3.323-.813-3.323-3.866 0-4.07 1.984-14.452 6.646-14.452 1.389 0 1.934.968 2.084 2.646-1.34.509-2.182 2.087-2.182 3.562 0 1.222.644 2.29 2.083 2.29-.595 4.936-2.282 9.82-5.308 9.82zM122.816 14.757c-.844 3.866-1.984 8.396-3.77 11.704-1.985.152-3.77 2.492-3.77 6.563 0 4.986 2.777 6.666 8.482 6.666 4.613 0 7.44-1.933 8.73-4.732 1.985-1.729 3.969-3.51 5.357-4.631l-1.29-1.73c-.595.712-1.835 2.036-3.224 3.308.05-.356.05-.711.05-1.07 0-5.953-3.372-8.497-3.372-16.893v-.711l-7.193 1.526zm.05 14.807c0-1.527-.447-2.44-1.637-2.849 1.092-2.544 1.786-5.802 2.58-8.294.1 6.36 2.332 9.057 2.332 12.212 0 3.918-2.43 6.054-4.117 6.054-2.628 0-4.217-1.322-4.217-4.325.597.306 1.19.46 1.787.46 1.734 0 3.272-1.325 3.272-3.258z"
    fill="#723014"/>
  <path
    d="M141.119 7.227l-1.488 7.021h-1.636l-.397 2.036h1.637c-.844 4.375-3.423 15.163-3.423 17.859 0 3.816 2.331 5.547 6.15 5.547 3.869 0 9.475-6.767 11.757-9.109h-1.687c-1.984 1.63-4.563 4.478-6.547 4.478s-2.48-.763-2.48-1.934c0-.254-.05-.763 3.373-16.841h2.976l.396-2.036h-2.977c.943-4.58 1.687-8.04 1.687-8.04l-7.341 1.019z"
    fill="#723014"/>
</svg>
